<?xml version="1.0" standalone="no"?><!DOCTYPE svg PUBLIC "-//W3C//DTD SVG 1.1//EN" "http://www.w3.org/Graphics/SVG/1.1/DTD/svg11.dtd"><svg t="1763312836108" class="icon" viewBox="0 0 1024 1024" version="1.1" xmlns="http://www.w3.org/2000/svg" p-id="3823" xmlns:xlink="http://www.w3.org/1999/xlink" width="200" height="200"><path d="M841.745629 329.828717c-6.81318-17.285825-14.493361-34.39825-19.735102-45.228534 2.275877-18.853651 2.79969-30.030734 2.275877-43.303069-0.1734-6.462767-0.527425-12.575122-0.350413-18.683863v-5.938955c13.792535 2.792465 27.935483 9.779045 37.190715 25.320031v0.177013c14.843773 30.38476 0.697213 59.895294-19.381077 87.657377z m-11.000071 142.491554c-0.3468 2.445664-0.870613 4.891329-1.224638 7.156368a9.490044 9.490044 0 0 1-2.619064 3.146489c-1.744839 1.394426-7.33338 1.918239-10.476258 2.095252l-0.700826 0.1734c-6.632555 0.527425-14.139335 1.221026-18.860876 7.683793l-0.3468 0.700826c-0.874226 2.792465-0.700826 7.156368 5.761942 11.350483l0.527425 0.177013c1.575051 0.523813 3.31989 0.870613 5.584929 0.870613 1.401651 0 2.97309-0.1734 4.367516-0.350413 1.401651 0 2.792465-0.1734 4.194115-0.1734 2.792465 0 4.537303 0.523813 5.581317 1.744839-0.870613 4.194116-1.914626 9.081832-3.832865 12.925534l-0.697213 1.394426c-1.578664 3.142877-3.673915 7.510393-6.285755 8.558019-2.279489 0.1734-4.197728-0.177013-6.462767-0.527425-1.741226-0.166175-3.843703-0.5202-6.285755-0.689988h-2.102476a52.056163 52.056163 0 0 0-5.407917-0.350413c-2.965865 0-5.238129 0.350413-7.326155 0.874226-2.79969 0.867001-6.997418 2.088027-8.565244 7.326155-1.047626 5.592154 4.020715 10.47987 9.432244 11.700896 2.442052 0.527425 5.234516 0.693601 7.860806 0.870613 3.135652 0.177013 6.459155 0.350413 8.727807 1.224638 0.5202 2.102477 0.1734 4.017103-1.051239 6.462768-0.870613 1.921851-2.265039 3.84009-3.486065 5.761941-1.054851 1.567826-2.272264 2.969477-2.973089 4.367516-28.983109 38.592366-71.419177 54.30314-112.276583 66.878262-30.38476 9.605645-101.98095 15.544599-142.664954 17.29305-15.714387 0.689988-31.609398 1.040401-47.323785 1.040401-46.622959 0-93.072518-2.788852-150.695548-9.25162-19.207677-3.31989-38.942779-7.163593-57.977055-13.268722-9.952445-3.323502-17.285825-6.112354-27.064869-10.47987a185.581486 185.581486 0 0 1-11.874297-5.942567c-3.84009-1.918239-10.476258-4.540916-9.779044-5.588542 0.523813-1.914626 4.537303-3.836478 6.285754-5.584929 2.792465-2.969477 6.462767-6.81318 4.540916-12.748521l-0.1734-0.523813c-2.969477-5.241741-7.156368-6.462767-14.31996-4.360291-1.918239 0.867001-4.01349 1.914626-5.935342 2.95864-4.714316 2.442052-9.602032 4.891329-13.796148 3.327115-8.901207-5.245354-20.952515-17.29305-26.017244-24.973231-0.1734-0.177013-0.1734-0.350413-0.350413-0.527426a3.30544 3.30544 0 0 0 1.398039-0.3468c0.874226-0.350413 1.921851-0.527425 2.969477-1.051238 4.190503-1.051238 9.605645-2.792465 13.272335-5.411529 1.918239-1.575051 4.190503-2.098864 4.537303-4.540916 0.350413-2.626289-0.523813-5.241741-2.272264-7.514005l-0.523813-0.520201c-2.969477-1.925464-6.112354-2.796077-9.779045-2.796077-3.142877 0-6.112354 0.697213-9.258844 1.224639-1.394426 0.3468-2.619064 0.700826-4.017103 0.874225-0.697213 0-1.221026 0.177013-1.918239 0.350413a26.212319 26.212319 0 0 1-5.064729 0.527425c-2.095252 0-3.316277-0.527425-4.363903-1.748451-4.017103-5.061116-8.558019-16.064799-11.354096-24.796218-0.3468-1.398039-0.870613-2.619064-1.217413-4.017103-1.748451-4.714316-3.316277-9.428632-3.49329-14.316348 1.567826-1.224638 8.030593-1.224638 11.350483-1.398039 1.398039 0 2.792465 0 3.840091-0.1734 1.921851 0 3.670303-0.1734 5.238128-0.1734 8.558019-0.350413 15.891399-0.527425 18.683864-5.935342l0.1734-0.527425c1.744839-5.938954-2.445664-11.173471-7.156367-12.571509-5.415141-2.445664-11.354096-2.445664-18.514077-2.445665-1.047626 0-2.268652 0.177013-3.49329 0.177013l-1.221026-0.177013c-1.221026 0-2.619064 0.177013-4.194115 0.177013-1.567826 0.1734-3.142877 0.1734-4.710704 0.1734-4.540916 0-5.415141-0.700826-5.415141-0.700825-2.965865-9.779045-3.316277-17.983038-3.84009-29.160122-0.1734-2.095252-0.1734-4.363903-0.346801-6.809567-0.523813-9.428632 1.047626-22.000141 2.442052-35.095463l1.571439-12.57151c1.921851-19.384689 7.680181-38.939166 17.809638-61.466732 11.700896-25.843844 24.796218-46.099146 41.55823-63.912397 1.575051-1.741226 3.489678-3.316277 5.588542-5.061116 5.938954-5.064729 13.445735-11.177083 9.258844-21.129528l-0.350413-0.700826-0.527425-0.3468c-6.285755-4.540916-8.904819-10.82667-8.731419-20.428702 0.177013-11.177083 1.221026-19.381077 3.66669-30.21136 6.462767-22.700967 14.493361-50.63645 39.116179-67.402074 0.697213-0.1734 1.394426-0.350413 2.098864-0.350413 3.49329 0 8.030593 1.918239 11.697284 3.31989 1.224638 0.523813 2.272264 1.044013 3.142877 1.221026C304.786848 143.167092 332.552544 167.44311 359.444013 190.84129l1.394426 1.394426c1.224638 0.874226 2.969477 1.394426 6.112355 1.394426 5.064729 0 13.268722-1.047626 21.826741-2.265039 8.904819-1.051238 17.986651-2.272264 25.146631-2.619065 5.061116-0.177013 9.602032-0.350413 14.316348-0.523813 12.398109-0.697213 23.921993-1.224638 37.71814-1.224638 2.268652 0 4.714316 0.1734 6.98658 0.1734-8.207606 35.099076-6.285755 77.007719 22.000141 100.929712 12.921922 12.224709 30.21136 18.337063 51.687688 18.16005 25.146631-0.1734 48.020998-8.731419 59.371481-13.969547h0.1734c0.527425-0.1734 1.044013-0.1734 1.575051-0.350413 1.224638 0 2.272264 0.697213 2.969477 1.047626a0.541875 0.541875 0 0 0 0.346801 0.1734l0.697213 0.350412 0.354025 0.697213c14.663148 25.320031 41.207818 40.86463 74.565667 43.480082h1.224638l0.693601 1.221026c10.129457 17.636238 37.89154 58.500868 75.786693 59.198081 1.741226 0.1734 3.312665 0.1734 4.884103 0.1734 20.25169-0.1734 39.112566-7.329768 58.323856-22.177154 1.921851 6.809567 3.500515 13.796148 4.367515 20.605716 0.874226 7.15998 1.575051 16.765625 1.051239 20.255302-1.575051 1.394426-9.605645 4.710703-22.523954 8.203993-7.864418 2.095252-14.500586 4.017103-21.136753 7.159981l-0.523813 0.350412c-2.788852 2.265039-10.472645 8.377394-6.459155 15.190574 2.095252 2.969477 5.411529 4.367516 9.605645 4.367516 5.411529 0 11.697284-2.095252 18.33345-4.194116 3.489678-1.221026 6.98658-2.442052 10.302858-3.142877l1.914626-0.527426c2.102477-0.5202 4.197728-1.221026 6.285755-1.221025 1.054851 0 2.279489 0.350413 3.14649 0.527425 0.697213 1.047626 1.221026 4.891329 1.221026 10.82667s-1.217413 12.047696-2.43844 17.813251z m-369.493995 273.452c-11.877909 6.805955-27.588683 10.30647-46.626572 10.30647-3.316277 0-6.809567-0.177013-10.299245-0.350412h-0.527425l-0.523813-0.527426c-3.670303-3.670303-2.095252-8.738644-0.874226-12.567897l0.523813-1.578663c3.66669-9.255232 6.809567-18.683864 9.952445-27.765696 4.194116-12.571509 8.558019-25.320031 13.97316-37.714527 24.095393 1.051238 47.14316 1.744839 69.497326 1.744839 5.061116 0 10.125845-0.177013 15.013561-0.177013-6.632555 28.639921-24.615593 53.786552-50.109024 68.630325z m115.423072 100.933324c-3.670303 12.741297-13.619135 26.89147-28.116108 29.853722a34.51385 34.51385 0 0 1-7.333381 0.704438c-6.98658 0-13.622747-1.921851-19.034276-5.415141-6.108742-4.537303-8.727806-10.30647-11.350483-16.0648-1.744839-3.84009-3.316277-7.680181-6.112355-10.646045h-4.710703c-5.415141 0.1734-11.877909 0.523813-15.891399-4.544528-2.969477-2.969477-4.710703-6.112354-5.415142-9.779045 0-10.30647 4.194116-17.809638 11.700896-21.649728 3.66669-1.051238 6.459155-4.544528 6.459155-7.683793 1.748451-9.956057 2.272264-20.255302 2.969477-30.38476 1.221026-22.700967 2.619064-46.276159 15.017174-64.613223 6.282142-6.809567 15.017173-10.469033 25.320031-10.469032l0.3468 0.1734c23.228392 5.938954 36.500727 27.592295 40.69123 66.354449 1.571439 30.030734-0.527425 54.472927-4.540916 84.164086z m-113.327821-37.895153l-0.350412 1.918239c-1.575051 2.97309-6.98658 12.571509-15.194187 15.548212a21.277641 21.277641 0 0 1-5.588541 0.6936c-5.411529 0-10.82667-1.741226-15.891399-5.411529-4.887716-4.367516-7.680181-9.605645-9.25162-16.939025 0-6.63978 0.870613-14.493361 7.506781-19.912114 4.537303-5.053891 11.173471-7.676568 18.860876-7.152756h0.697213c7.683793 0 13.445735 6.809567 17.459226 12.748522 4.194116 5.758329 2.97309 12.571509 1.752063 18.506851z m27.762083-595.802836a219.307811 219.307811 0 0 1 5.588542-25.143018c2.095252 0.1734 4.190503 0.1734 6.459155 0.350412 17.112425 0.1734 43.129669 2.091639 57.099216 3.316278l2.27949 0.1734c4.360291 0.177013 8.727806 0.697213 12.918309 1.047626-2.79969 5.761942-4.544528 12.221096-4.717928 18.860876 0.1734 15.540986 9.428632 30.030734 23.567967 37.017315l0.177012 0.1734c0.704438 0.523813 1.575051 0.877838 2.449277 1.224638 2.265039 0.874226 5.064729 2.095252 6.285755 5.061116l0.3468 0.523813-0.169788 0.700826c0 0.874226 0 2.095252 0.169788 3.489677 0.177013 4.363903 0.527425 10.129457-5.064729 12.571509-12.398109 5.584929-31.432386 12.571509-50.813462 12.57151-12.047696 0.1734-22.520341-2.442052-31.42516-7.506781-19.735102-11.874296-28.643533-34.922063-25.150244-64.432597z m138.127651-15.540986c-0.870613 2.268652-3.14649 4.714316-5.411529 7.50678-0.700826 0.700826-1.401651 1.398039-1.921851 2.272264-1.925464 2.268652-3.843703 5.064729-6.108742 8.904819l-0.697213 1.398039c-1.752064 3.316277-2.796077 5.234516-4.020715 8.203993-0.867001 2.272264-2.442052 6.285755-7.329768 6.285755-0.874226 0-1.918239-0.177013-2.969477-0.350413l-0.523813-0.1734c-6.636167-3.31989-10.302858-10.30647-10.996458-20.779115-0.177013-6.285755 1.914626-11.700896 5.761941-15.891399 5.407916 0.697213 10.823058 1.398039 15.714387 2.095251l4.017103 0.700826a43.675157 43.675157 0 0 0 14.486135-0.1734z m-74.742679-100.756312v-0.1734c7.15998-4.891329 17.112425-7.687406 27.061257-7.687405 8.735031 0 16.939025 1.921851 23.228392 5.588541 17.116038 9.078219 32.306611 26.017244 46.799972 51.510675l0.1734 0.177013c0 0.1734 0.1734 0.350413 0.1734 0.697213-4.006265 2.969477-8.373781 6.112354-13.09171 9.779045-1.224638 1.047626-2.619064 2.098864-3.84009 3.142877-3.31989 2.792465-8.735031 7.853581-12.571509 9.779045a50.398024 50.398024 0 0 0-10.302858-1.051239c-1.398039 0-2.969477 0.177013-4.367515 0.350413-10.125845-1.398039-24.445805-3.142877-34.748663-4.367516-13.272335-1.567826-44.881733-3.139265-67.055274-3.84009 11.173471-26.187032 27.415283-47.66336 48.541198-63.905172z m212.693318 24.796218c3.670303-0.3468 6.805955 2.272264 10.125845 8.381007 8.203994 17.116038 13.102547 36.843914 15.367586 63.735384-11.527496 1.401651-23.051379 4.017103-34.394638 6.462767-4.020715 0.874226-8.037818 1.921851-12.054921 2.796077l-1.217413 0.1734-0.885063-0.870613c-13.962323-12.224709-30.724335-20.081902-52.905102-24.973231l-1.394426-0.1734-0.527425-1.394426c-1.571439-5.765554-3.31989-11.003683-5.064729-16.064799 23.051379-16.068412 50.466662-31.613011 82.950286-38.072166z m27.057645 100.405899c0.527425 12.748522 1.224638 30.034347-1.047626 42.605856-1.567826 8.731419-1.567826 11.177083-1.394426 13.619135-4.540916-11.697284-15.887787-21.299316-27.06487-26.541057l-0.527425-0.350412-0.523813-0.346801c-3.316277-4.540916-3.663078-9.952445-4.009878-15.194186 0-1.744839-0.177013-3.49329-0.354025-5.234516l-0.1734-0.350413c0-4.194116 3.670303-5.938954 5.938954-6.98658 0.523813-0.350413 1.047626-0.523813 1.398038-0.874226l0.527426-0.1734a127.871756 127.871756 0 0 1 27.061257-6.112354c0 1.752064 0 3.843703 0.169788 5.938954z m-2.088027 57.453242c0.3468 0.177013 0.523813 0.523813 0.523813 1.398039 0-0.527425-0.354025-0.874226-0.523813-1.398039z m-45.05152 26.541057l0.527425-1.047626c1.394426-4.540916 3.486065-8.731419 5.761942-12.921922 2.615452-5.064729 5.061116-9.779045 6.108742-15.017173l0.177012-0.697213 0.523813-0.523813c2.268652-2.268652 5.064729-2.792465 8.030594-1.398039l0.527425 0.350413c4.721541 3.66669 7.680181 8.904819 8.735031 15.017174l0.177013 0.177012c0.5202 9.081832-6.462767 16.4116-13.62636 19.55809l-0.527425 0.1734c-1.571439 0.350413-4.533691 1.047626-7.152756 1.047626-4.017103 0-6.81318-1.221026-8.558018-3.670303l-0.704438-1.047626z m69.497326 35.449489a155.980639 155.980639 0 0 1 4.01349 11.870683c-17.1052 15.020786-34.57165 22.700967-52.211501 22.877979-7.336993 0-14.489748-1.221026-21.649728-3.84009-19.731489-7.510393-31.609398-29.160121-34.925676-35.619276-0.527425-1.047626-0.354025-2.268652 0.350413-3.49329v-1.047626l1.575051-0.523813c2.442052-1.051238 4.710703-2.792465 7.329768-4.714316 4.01349-2.969477 8.030593-5.938954 13.098935-6.112354 1.918239 0 3.836478 0.527425 5.761941 1.398038 5.592154 1.918239 11.527496 2.792465 17.459226 2.792465 6.285755 0 15.544599-1.221026 23.051379-6.982968 8.731419-7.514006 13.272335-17.29305 13.272335-29.337134 1.221026 4.017103 3.323502 8.381006 6.285754 14.316348 4.540916 8.904819 10.649658 21.125915 16.588613 38.415354z m-178.811656 584.44874c11.697284-14.840161 23.748592-30.207747 28.639921-48.367798l0.177012-0.527425 4.363903-2.965865h0.693601c5.238129 0.870613 10.82667 1.221026 16.245424 1.571439 19.901277 1.044013 40.333592 2.452889 50.986863 22.704579 4.710703 6.98658 6.112354 17.1052 3.663077 26.190644-2.619064 5.765554-7.503168 10.646045-12.921922 13.098935l-0.527425 0.177012c-6.285755 0.867001-12.918309 1.217413-20.25169 1.217414-15.013561 0-30.034347-1.741226-44.701108-3.670303-8.554406-0.874226-17.289438-2.091639-26.017244-2.619064l-0.700825-0.177013-2.265039-3.31989 2.615452-3.312665z m-266.472646-130.440245c-5.584929 38.765766-8.030593 80.323996-10.302857 120.4878l-1.221026 18.683864-3.84009 3.150102h-5.238129c-29.683934-0.527425-60.415494-1.051238-75.43628-30.565385-18.510464-31.255373-14.843773-77.708544-5.241742-110.708756 4.544528-12.744909 16.939025-23.047767 27.068483-28.285895 5.765554-4.017103 13.095322-6.108742 21.476328-6.108742 11.177083 0 24.099005 4.006265 34.228462 10.646045 8.381006 4.891329 15.540986 13.27956 18.333451 22.007366l0.1734 0.3468v0.346801zM999.955182 419.411557l-0.350412-0.177012c-20.435927-6.108742-40.340817-8.034206-60.592507-9.428632a274.514076 274.514076 0 0 0-21.306541-0.877838c-18.156438 0-36.666902 1.575051-54.126127 2.969477a4.186891 4.186891 0 0 1-1.575051-0.870613c-0.177013-0.523813-0.527425-2.969477-0.874226-5.588542-1.398039-9.605645-4.009878-27.41167-6.98658-37.89154a303.276822 303.276822 0 0 0-3.663078-12.74491c16.581387-19.037889 27.765695-38.418966 33.177225-57.630254 9.775432-34.047837 0.874226-68.272688-23.405405-89.402216-2.788852-2.445664-15.540986-11.700896-29.152896-13.792535-3.150102-0.527425-6.285755-0.874226-9.435857-1.224638-1.044013-8.207606-2.619064-17.459225-4.710704-27.588683-4.540916-22.177154-10.82667-44.87812-24.622818-61.293332-6.632555-7.33338-13.619135-9.081832-21.299315-9.258845-1.575051-0.1734-5.238129 0.1734-6.816793 0.1734h-0.350413c-26.541057 4.540916-52.731701 17.112425-76.827093 29.860947a163.447682 163.447682 0 0 0-14.500586 8.207606c-4.360291-8.207606-9.775432-16.935412-10.996458-19.034276-15.371199-18.860876-39.462979-44.53132-70.718352-48.544811a77.965032 77.965032 0 0 0-11.007295-0.870613c-37.71814 0.1734-64.255585 34.39825-85.211713 67.752487-4.714316 7.857193-8.207606 15.190574-12.921922 27.588683-6.112354-0.1734-12.221096-0.350413-18.683863-0.350413-11.523883 0-23.047767 0.527425-36.323714 1.221026-21.826741 1.224638-36.497114 2.619064-54.47654 4.544528-31.956198-30.388372-65.834248-49.419036-97.613434-66.184661-4.190503-2.442052-11.350483-4.01349-18.160051-4.01349-3.31989 0-6.285755 0.350413-8.554406 1.044013l-0.350413 0.180625c-22.177154 10.649658-39.112566 32.299386-52.034488 66.177436-5.938954 15.717999-9.432244 32.826812-10.653271 50.986863-0.700826 12.748522 0 25.320031 1.921852 32.830424 0.874226 2.792465-0.523813 4.363903-4.190503 8.554406-1.224638 1.398039-2.622677 2.792465-4.017103 4.540916-4.891329 5.935342-13.969548 19.204064-14.319961 19.731489-15.367586 20.255302-24.095393 45.05152-32.302998 69.150526l-2.445665 6.459155c-2.268652 8.381006-6.459155 24.272405-8.030593 34.05145a365.946518 365.946518 0 0 0-1.921851 92.722105c-1.221026 0.874226-5.938954 1.744839-8.558019 2.098864-1.921851 0.3468-3.843703 0.697213-5.415142 1.047626l-3.66669 1.051238c-7.50678 1.741226-12.744909 3.142877-23.57158 6.632555-9.081832 2.796077-20.255302 7.33338-27.592295 10.476258-8.377394 3.84009-15.367586 7.33338-23.398179 11.874296l-0.350413 0.1734c-2.622677 2.091639-9.428632 7.860806-5.241742 14.840161l0.350413 0.350413c2.268652 2.626289 5.415141 3.84009 9.081832 3.84009 2.969477 0 6.112354-0.867001 8.908431-1.741226l1.741227-0.523813c6.98658-2.445664 14.14656-5.588542 20.95974-8.565244 3.142877-1.390814 6.459155-2.78524 9.775432-4.183278 11.523883-4.714316 24.622818-8.207606 37.020927-11.350483 3.670303-1.051238 7.857193-1.921851 10.830283-1.921852 0.870613 0 2.788852 0 3.142877 1.221026 2.788852 5.761942 4.537303 10.302858 6.455543 15.717999 0.877838 2.268652 1.748451 4.891329 2.792464 7.680181 0.700826 1.748451 1.401651 3.670303 2.272264 5.765554 1.047626 2.272264 1.921851 4.891329 2.969478 7.50678 0.874226 2.102477 1.748451 4.371128 2.796077 6.81318 0.870613 2.272264 1.918239 4.544528 2.792464 6.636168-0.700826 0.523813-2.272264 1.578664-5.588541 3.142877-2.619064 1.051238-5.241741 2.268652-7.853581 3.49329-3.673915 1.575051-7.336993 3.31989-11.180696 5.061116-8.904819 3.49329-16.762012 7.510393-26.190644 12.398109-6.809567 3.670303-10.65327 5.946179-16.415212 11.357709-3.66669 3.659465-5.938954 9.602032-3.316277 14.489748l0.870613 1.224638c-0.3468-0.350413-0.523813-0.874226-0.870613-1.224638 3.84009 3.670303 9.428632 3.496903 18.337063-0.693601a214.864432 214.864432 0 0 0 10.302857-5.765554c3.142877-1.741226 6.285755-3.489678 9.255232-4.891328 8.731419-4.537303 17.459225-8.550794 26.541057-12.748522 5.411529-2.265039 11.697284-4.884104 18.510464-5.938955 3.49329 2.272264 6.462767 5.769167 9.956057 9.258845l3.66669 3.659465c2.091639 2.102477 5.411529 5.769167 7.683793 7.694631 3.142877 2.962252 6.805955 5.754717 9.779045 8.727806 0.874226 1.571439 1.921851 4.363903 0.1734 5.938954-3.663078 2.965865-7.33338 5.588542-11.346871 8.554407-10.65327 7.853581-21.656953 15.891399-29.687546 26.544669l-0.523813 0.5202v0.527426c-0.870613 3.84009 0.350413 7.510393 3.316277 10.65327 1.398039 1.217413 2.969477 1.918239 4.891329 1.918239 4.017103 0 8.558019-3.142877 12.575121-5.942567 1.221026-0.693601 2.442052-1.567826 3.666691-2.265039 5.938954-3.489678 11.523883-8.030593 17.112425-12.398109l0.523813-0.527426c6.462767-5.064729 13.619135-10.82667 20.956127-14.489748 3.84009-1.051238 7.15998 0.867001 11.874297 3.663078 1.921851 1.047626 4.194116 2.272264 6.462767 3.49329 1.224638 0.697213 2.622677 1.398039 4.194115 2.268652 8.381006 4.717928 18.857264 10.476258 33.527637 15.721611 17.636238 7.857193 37.541127 11.350483 56.575404 14.666761 8.558019 1.571439 17.108813 3.139265 25.843844 5.064729 21.302928 1.918239 41.912256 3.489678 61.813533 4.537303a895.878981 895.878981 0 0 0-27.061257 81.725647l-0.177013 0.346801c-0.350413 0.697213-0.523813 1.575051-0.874225 2.442051-1.047626 2.976702-2.619064 7.517618-8.034206 6.986581h-0.523813l-0.350413-0.346801c-11.874296-9.775432-21.302928-15.884174-30.388372-19.735102-5.411529-2.268652-11.520271-3.486065-17.983038-3.486065-11.523883 0-24.449418 3.663078-38.765766 10.830283-36.497114 24.962393-48.020998 71.762365-35.099076 143.17793 8.034206 26.367657 37.020927 56.232216 67.055274 58.497255l3.142877 0.177013c48.194398 2.272264 93.596331 4.367516 139.171665 4.367516 14.31996-0.697213 28.636308-0.697213 42.432456-0.697213 31.782798 0.177013 61.473958 0 91.150667-7.683793 20.081902-6.455542 40.160192-2.622677 59.371481 1.047625 12.575122 2.268652 25.493431 4.717928 38.592365 4.540916 5.241741-0.693601 11.180696-0.693601 17.466451-0.6936 17.986651 0 36.847527 0.1734 46.276159-17.29305 10.13307-12.398109 5.761942-32.826812 0.3468-47.666973-15.363974-27.415283-46.272546-32.129599-76.660919-34.39825-8.030593-1.578664-7.680181-9.255232-7.329768-14.319961 0.177013-1.575051 0.177013-3.139265 0.177013-4.190503-1.047626-32.129599-17.112425-58.851281-32.657024-84.684287-10.646045-17.813251-21.649728-36.327327-27.762083-56.405616a118.439512 118.439512 0 0 0-2.619064-12.748522c-0.877838-4.01349-1.752064-8.030593-2.275877-12.044084 12.051309-1.051238 24.276018-2.445664 36.670514-4.020715 18.687476-2.792465 34.22485-5.758329 48.891611-10.125845 15.194186-4.544528 48.19801-17.462838 49.596049-18.160051 22.003754-9.952445 42.251831-23.047767 54.653553-35.099075 15.020786-14.843773 26.017244-28.466521 34.05145-41.384831 2.095252-3.66669 5.584929-5.407916 10.47987-5.407916 6.979355 0 15.717999 3.142877 24.272405 6.285754l2.962252 1.221026c12.224709 5.415141 20.963353 9.948832 29.514147 15.186961 6.63978 4.194116 12.925534 7.860806 18.683863 7.860806 2.969477 0 5.418754-1.047626 7.510393-3.142877 4.009878-4.190503-0.1734-9.782657-2.452889-12.74491l-0.523813-0.527425c-26.887857-19.901277-47.840373-28.112496-73.164016-34.925675-0.693601-0.523813-2.615452-1.744839-2.095251-3.316278 0.354025-0.870613 0.877838-2.622677 1.401651-4.721541 1.567826-6.455542 4.190503-17.282213 8.550793-24.09178 7.336993-2.445664 17.29305-2.268652 27.072095 0.350413l28.462909 5.938954c6.108742 1.744839 11.874296 3.66669 17.112425 5.407917 6.27853 2.279489 11.346871 4.020715 14.840161 4.544528 2.788852 0.177013 5.411529-0.874226 7.33338-3.31989 2.091639-2.442052 3.135652-6.108742 2.268652-9.948832-1.398039-4.017103-5.592154-5.938954-8.904819-7.333381a33.542087 33.542087 0 0 1-3.500515-1.748451l-0.520201-0.350413c-13.622747-4.363903-22.177154-5.935342-30.381147-7.50678a193.290567 193.290567 0 0 1-17.813251-3.663078c-4.020715-1.051238-8.550794-1.401651-12.748522-1.921851-2.969477-0.350413-6.108742-0.523813-9.078219-1.051239l-1.752063-0.350412c-1.911014-0.350413-6.285755-1.047626-7.329768-2.095252-0.697213-5.064729-0.523813-12.224709 0.697213-20.605715 0.697213-5.415141 1.047626-11.700896 1.221026-17.636238 0.177013-1.744839 0.177013-3.49329 0.354025-5.064729 0.697213-2.095252 2.095252-4.017103 2.969477-4.017103 3.316277-0.697213 33.177224-5.411529 51.160263-5.761941h5.241741c18.676639 0 35.445876 1.921851 50.109024 5.761941l0.523813 0.173401c4.544528 0.350413 8.915657 1.401651 13.275947 2.445664 5.064729 1.221026 10.30647 2.445664 15.891399 2.619064 1.398039-0.1734 8.207606-1.044013 10.299245-5.415141 0.700826-1.571439 1.054851-2.792465 1.054851-4.017103v-0.350413c-0.18785-4.898554-5.776392-7.687406-12.582347-10.830283z m-476.015861 103.541551c-9.432244-6.108742-19.735102-6.979355-28.639921-6.979355-1.575051 0-3.142877 0.1734-4.717928 0.1734-6.285755 0.1734-15.367586 1.918239-21.653341 6.636167-3.84009 2.969477-5.758329 5.588542-7.680181 8.735032-2.098864 3.489678-3.142877 7.156368-3.142877 11.516658-0.177013 6.112354 2.619064 11.877909 7.857193 16.068412 6.636167 5.415141 18.857264 8.904819 31.605786 8.904819 12.398109 0 23.401792-3.139265 30.207747-8.727806 4.714316-3.673915 7.329768-9.782657 7.506781-17.289438 0.180625-7.156368-4.009878-14.142948-11.343259-19.037889z m186.488224-21.996529V501.480392l-0.1734 0.177013v0.169788l-0.1734 0.177012v0.350413l-0.177013 0.1734v0.1734l-0.177012 0.3468-0.1734 0.173401v0.350412l-0.169788 0.354026-0.177013 0.1734-0.177012 0.350412v0.350413l-0.177013 0.3468-0.1734 0.173401-0.1734 0.350412-0.177013 0.350413-0.1734 0.3468-0.177012 0.350413-0.177013 0.354025-0.177013 0.346801-0.169787 0.350412-0.177013 0.350413-0.1734 0.3468-0.3468 0.350413-0.177013 0.350413-0.177013 0.3468-0.1734 0.350413-0.354025 0.350413-0.1734 0.350412-0.354025 0.350413-0.177013 0.350413-0.3468 0.3468-0.177013 0.350413-0.350413 0.350413-0.177012 0.1734-0.346801 0.350413-0.354025 0.350412-0.177012 0.350413-0.343188 0.350413-0.350413 0.350413-0.350413 0.3468-0.177012 0.1734h-0.1734l-0.177013 0.350413-0.350413 0.350413-0.350413 0.3468-0.3468 0.1734-0.350413 0.350413-0.350412 0.1734-0.523813 0.3468-0.354026 0.177013-0.350412 0.3468-0.354026 0.177013-0.527425 0.177012-0.3468 0.350413-0.354025 0.177013-0.520201 0.1734-0.350413 0.177012-0.527425 0.177013-0.350413 0.177013-0.523813 0.177012H694.315784l-0.173401 0.169788H693.614958v0.177012h-0.700825l-0.177013 0.177013h-0.704438l-0.177013 0.1734h-1.051238v0.177013H689.05598l-0.177013 0.1734H686.08289l-0.357638-0.1734h-1.401651l-0.350413-0.177013h-0.697213l-0.350412-0.1734H682.398137l-0.350412-0.177013h-0.346801l-0.350412-0.177012h-0.350413l-0.350413-0.169788h-0.350413l-0.350412-0.177012h-0.350413l-0.177013-0.177013-0.354025-0.177013h-0.350413l-0.350413-0.177012-0.350412-0.1734-0.350413-0.177013h-0.3468l-0.173401-0.1734-0.354025-0.177013-0.350413-0.177012-0.350412-0.177013-0.1734-0.169788-0.354026-0.177012-0.3468-0.177013-0.350413-0.169788-0.1734-0.177012-0.350413-0.1734-0.350412-0.1734-0.350413-0.173401-0.1734-0.1734-0.354025-0.1734-0.350413-0.1734-0.177013-0.177013-0.350413-0.3468-0.350412-0.177012-0.177013-0.173401-0.350413-0.1734-0.177012-0.350412-0.343188-0.173401-0.354025-0.1734-0.173401-0.350412-0.350412-0.173401-0.1734-0.350412-0.354026-0.173401-0.177012-0.3468-0.346801-0.177012-0.177012-0.346801-0.3468-0.177012-0.173401-0.346801-0.350412-0.1734-0.177013-0.350412-0.350413-0.523813-0.350412-0.700826-0.523813-0.523813-0.357638-0.523813-0.350413-0.697213-0.1734-0.523812-0.350413-0.700826-0.354025-0.697213-0.343188-0.523813-0.177012-0.697213-0.350413-0.697213-0.1734-0.700825-0.177013-0.697213-0.350413-0.700826-0.177012-0.6936-0.1734-0.527426-0.173401-0.700825-0.177012-0.697213-0.177013-0.874226-0.177012-0.697213-0.166176-0.700826-0.177012-0.697213v-0.697213l-0.177013-0.697213v-0.697213l-0.1734-0.700825v-0.870613l-0.177013-0.697213v-2.098864l-0.1734-0.697213v-2.268652l0.1734-0.697213v-2.268652l0.177013-0.697213v-1.394426l0.1734-0.697213v-0.697213l0.177013-0.700825 0.177012-0.697213v-0.700826l0.166176-0.697213 0.177012-0.697213v-0.697213l0.177013-0.697213 0.177012-0.697213 0.173401-0.527425 0.1734-0.697213 0.177012-0.693601 0.177013-0.527425 0.1734-0.697213 0.350413-0.700826 0.1734-0.523812 0.177013-0.697213 0.177012-0.523813 0.343188-0.523813 0.177013-0.697213 0.177012-0.527426 0.1734-0.350412 0.177013-0.173401v-0.350412l0.1734-0.350413 0.177013-0.1734 0.1734-0.350413 0.180625-0.350413 0.177013-0.1734 0.1734-0.350413 0.1734-0.354025 0.177013-0.169787 0.177012-0.350413 0.1734-0.1734 0.1734-0.350413 0.177013-0.177013 0.177013-0.3468 0.1734-0.1734 0.350413-0.350413 0.1734-0.1734 0.1734-0.3468 0.177012-0.1734 0.346801-0.354026 0.177012-0.169787 0.177013-0.177013 0.350413-0.3468 0.1734-0.177013 0.350413-0.350412 0.177012-0.169788 0.350413-0.177013 0.169788-0.1734 0.354025-0.350413 0.1734-0.1734 0.350413-0.177012 0.177012-0.173401 0.350413-0.1734 0.354025-0.1734 0.173401-0.350413 0.354025-0.177012 0.3468-0.1734 0.177013-0.1734 0.350412-0.177013 0.350413-0.1734 0.350413-0.177013 0.1734-0.169787 0.3468-0.177013h0.354026l0.350412-0.1734 0.350413-0.1734 0.1734-0.1734 0.354025-0.173401h0.343188l0.354025-0.177012 0.346801-0.1734h0.354025l0.350413-0.1734 0.3468-0.173401h0.357638l0.177012-0.1734h0.346801l0.354025-0.1734h0.350413l0.3468-0.177012h0.874226v-0.173401h0.700825v-0.1734h0.704438l0.1734-0.177012h0.697213l0.1734-0.1734h1.051239l0.177012-0.177013h2.109702c5.238129 0 10.295633 2.098864 14.316348 5.765554l0.523813 0.523813 0.354025 0.350413 0.5202 0.523813 0.350413 0.527425 0.350413 0.523813 0.350413 0.3468 0.350412 0.523813 0.350413 0.523813 0.354025 0.523813 0.350413 0.5202 0.350413 0.527426 0.354025 0.523812 0.3468 0.523813 0.350413 0.523813 0.169788 0.697213 0.354025 0.523813 0.350413 0.527426 0.177012 0.523812 0.346801 0.697213 0.177012 0.523813 0.177013 0.523813 0.3468 0.700826 0.1734 0.523813 0.177013 0.697213 0.177013 0.523812 0.1734 0.700826 0.350412 0.700826 0.173401 0.523812v0.697213l0.177012 0.697213 0.177013 0.523813 0.1734 0.697213 0.1734 0.697213v0.700826l0.177013 0.697213v0.700825h0.177012V481.61524l0.1734 0.697213v1.394426l0.177013 0.874226V489.645834l-0.177013 0.697213v1.398038l-0.1734 0.870613v1.398039l-0.177012 0.874225-0.177013 0.697213v0.874226l-0.1734 0.693601-0.1734 0.700825-0.177013 0.870613-0.177012 0.700826-0.173401 0.870613-0.13005 0.6647z m-397.779891 3.666691l-0.177013 0.3468v0.350413l-0.177012 0.350412-0.1734 0.1734-0.173401 0.350413-0.1734 0.350413v0.1734l-0.1734 0.354025-0.1734 0.173401-0.1734 0.350412-0.177013 0.350413-0.1734 0.1734-0.1734 0.3468-0.3468 0.177013-0.1734 0.3468-0.1734 0.177013-0.173401 0.3468-0.1734 0.1734-0.1734 0.350413-0.350413 0.177013-0.1734 0.350412-0.1734 0.173401-0.350413 0.350412-0.1734 0.1734-0.1734 0.173401-0.350413 0.350412-0.1734 0.1734-0.350412 0.173401-0.184238 0.3468-0.350413 0.1734-0.1734 0.1734-0.350413 0.1734-0.177012 0.350413-0.350413 0.1734-0.350413 0.177013-0.177013 0.1734-0.3468 0.1734-0.3468 0.177013-0.177013 0.1734-0.350412 0.1734-0.346801 0.1734-0.1734 0.177013-0.350413 0.1734-0.350412 0.1734-0.350413 0.177013-0.1734 0.1734h-0.177013l-0.169787 0.1734-0.350413 0.1734h-0.350413l-0.350413 0.1734-0.3468 0.1734-0.350413 0.1734h-0.1734l-0.350413 0.177013-0.350412 0.169788h-0.350413l-0.350413 0.177012h-0.3468l-0.350413 0.177013h-0.3468l-0.350413 0.169787h-0.700825l-0.350413 0.177013h-0.3468l-0.173401 0.177013H295.011416l-0.1734 0.177012h-0.697213v0.1734h-1.047626v0.177013H291.171326l-0.1734 0.1734h-1.575052l-0.1734-0.1734H287.501023l-0.3468-0.177013h-0.704438l-0.1734-0.1734h-0.693601l-0.350413-0.177012h-0.350412l-0.346801-0.177013h-0.1734l-0.1734-0.177013h-0.354025l-0.1734-0.169787H283.133507l-0.1734-0.177013h-0.1734l-0.350413-0.177012h-0.1734l-0.1734-0.169788-0.1734-0.177013h-0.350413l-0.169787-0.1734h-0.173401l-0.350412-0.1734-0.180625-0.166175h-0.173401l-0.177012-0.1734-0.350413-0.1734h-0.1734l-0.1734-0.1734-0.177013-0.177013-0.3468-0.1734h-0.1734l-0.1734-0.1734-0.1734-0.177013-0.177013-0.1734-0.3468-0.1734h-0.1734l-0.173401-0.1734-0.177012-0.177013-0.1734-0.1734-0.177013-0.1734-0.1734-0.177013-0.354025-0.1734-0.1734-0.1734-0.177013-0.1734-0.169788-0.1734-0.177012-0.173401-0.1734-0.1734-0.523813-0.350412-0.346801-0.523813-0.350412-0.520201-0.527426-0.350412-0.3468-0.523813-0.350413-0.527426-0.350413-0.523813-0.350412-0.523812-0.350413-0.350413-0.350413-0.523813-0.3468-0.523813-0.350413-0.700825-0.350413-0.523813-0.1734-0.523813-0.3468-0.527426-0.354025-0.5202-0.1734-0.523813-0.350413-0.700825-0.1734-0.523813-0.350413-0.523813-0.1734-0.697213-0.1734-0.523813-0.3468-0.700826-0.173401-0.523812-0.1734-0.697213-0.177012-0.523813-0.173401-0.700826-0.177012-0.700825-0.169788-0.523813-0.1734-0.697213-0.180625-0.697213-0.1734-0.697213v-0.523813l-0.1734-0.697213-0.1734-0.700826v-0.697213l-0.177013-0.700825v-0.700826l-0.1734-0.697213V486.987032h-0.1734v-0.697213-2.272264l0.1734-0.697214v-2.268651l0.1734-0.697213v-1.398039l0.177013-0.874225v-0.700826h0.1734v-0.870613l0.1734-0.697213 0.1734-0.700826v-0.874225l0.180625-0.697213 0.1734-0.870613 0.169788-0.700826 0.177012-0.874225v-0.173401l0.173401-0.1734v-0.1734l0.177012-0.177012v-0.346801l0.1734-0.177012v-0.1734l0.173401-0.350413 0.1734-0.1734v-0.350413l0.1734-0.1734 0.1734-0.346801v-0.350412l0.1734-0.177013 0.1734-0.3468 0.1734-0.350413 0.1734-0.350413v-0.3468l0.173401-0.1734 0.1734-0.350413 0.1734-0.350413 0.180625-0.3468 0.1734-0.350413 0.3468-0.354025 0.1734-0.3468 0.177013-0.3468 0.1734-0.350413 0.1734-0.3468 0.350413-0.350413 0.1734-0.350413 0.1734-0.3468 0.350413-0.350413 0.1734-0.354025 0.1734-0.3468 0.346801-0.346801 0.177012-0.350412 0.350413-0.346801 0.3468-0.350412 0.177013-0.350413 0.350413-0.350413 0.350412-0.3468 0.1734-0.354025 0.350413-0.169788 0.350413-0.350413 0.350413-0.350413 0.3468-0.350412 0.350413-0.169788 0.3468-0.350413 0.350413-0.350412 0.350413-0.173401 0.3468-0.350412 0.350413-0.1734 0.350412-0.350413 0.350413-0.1734 0.5202-0.177013 0.354026-0.350413 0.3468-0.177012 0.523813-0.1734 0.350413-0.177013 0.3468-0.1734 0.523813-0.1734 0.350412-0.173401 0.523813-0.1734 0.527426-0.177012h0.350413l0.523812-0.1734 0.346801-0.177013h0.523813l0.523812-0.1734h0.346801l0.527425-0.1734h0.874226l0.5202-0.1734h4.020716l0.523812 0.1734H293.96379l0.520201 0.1734h0.527425l0.3468 0.1734h0.523813l0.350413 0.177013 0.527425 0.1734h0.350413l0.523813 0.177012 0.350413 0.1734h0.523813l0.350412 0.173401 0.350413 0.1734 0.527426 0.1734 0.3468 0.177013 0.527425 0.1734 0.3468 0.177012 0.350413 0.1734 0.523813 0.173401 0.3468 0.350412 0.350413 0.1734 0.527425 0.173401 0.350413 0.1734 0.350413 0.350412 0.3468 0.173401 0.523813 0.350412 0.350413 0.1734 0.3468 0.346801 0.350413 0.177012 0.350413 0.350413 0.350412 0.3468 0.527426 0.177013 0.3468 0.350413 0.350413 0.350412 0.3468 0.350413 0.350413 0.1734 0.350413 0.350413 0.350412 0.350413 0.350413 0.3468 0.350413 0.350413 0.1734 0.3468 0.350413 0.3468 0.523813 0.704438 0.350412 0.523813 0.350413 0.527426 0.350413 0.697213 0.350413 0.523813 0.350412 0.700825 0.350413 0.697213 0.1734 0.523813 0.350413 0.697213 0.3468 0.697213 0.1734 0.700825 0.173401 0.523813 0.350412 0.697213 0.1734 0.697213 0.173401 0.697213 0.1734 0.700826 0.350412 0.697213 0.173401 0.697213v0.700825l0.177012 0.700826 0.1734 0.6936 0.177013 0.700826 0.1734 0.697213v0.870613l0.1734 0.700826v0.697213l0.1734 0.697213v1.394426l0.177013 0.877838V486.806407l-0.177013 0.700825v1.390814l-0.1734 0.700825v1.571439l-0.1734 0.700825-0.1734 0.697213v0.700826l-0.177013 0.697213-0.1734 0.697213v0.697213l-0.177012 0.523813-0.173401 0.697213-0.1734 0.700825-0.177012 0.700826-0.1734 0.6936-0.173401 0.527426-0.1734 0.697213-0.177012 0.700825-0.1734 0.527426-0.173401 0.6936-0.3468 0.527425-0.1734 0.697213-0.1734 0.523813-0.350413 0.527426-0.2023 0.523813z" fill="#f06aac" p-id="3824"></path></svg>